<?xml version="1.0" standalone="no"?><!DOCTYPE svg PUBLIC "-//W3C//DTD SVG 1.1//EN" "http://www.w3.org/Graphics/SVG/1.1/DTD/svg11.dtd"><svg t="1753173288898" class="icon" viewBox="0 0 1024 1024" version="1.1" xmlns="http://www.w3.org/2000/svg" p-id="5053" width="32" height="32" xmlns:xlink="http://www.w3.org/1999/xlink"><path d="M512 0a512 512 0 1 1 0 1024 512 512 0 0 1 0-1024z m0 186.181818a46.545455 46.545455 0 0 0-46.545455 46.545455V558.545455l0.744728 8.378181a46.545455 46.545455 0 0 0 45.800727 38.167273h279.272727l8.378182-0.744727A46.545455 46.545455 0 0 0 837.818182 558.545455l-0.744727-8.378182A46.545455 46.545455 0 0 0 791.272727 512H558.545455v-279.272727l-0.744728-8.378182A46.545455 46.545455 0 0 0 512 186.181818z" fill="#FFA100" p-id="5054"></path></svg>